<svg width="15" height="15" viewBox="0 0 15 15" fill="none" xmlns="http://www.w3.org/2000/svg">
<path d="M11.5849 11.1817C11.9632 11.1817 12.326 11.3319 12.5935 11.5994C12.861 11.8668 13.0113 12.2296 13.0113 12.6079C13.0113 12.9861 12.861 13.3489 12.5935 13.6163C12.326 13.8838 11.9632 14.0341 11.5849 14.0341C11.2066 14.0341 10.8439 13.8838 10.5764 13.6163C10.3089 13.3489 10.1586 12.9861 10.1586 12.6079C10.1586 12.2296 10.3089 11.8668 10.5764 11.5994C10.8439 11.3319 11.2066 11.1817 11.5849 11.1817ZM11.5849 11.8948C11.3958 11.8948 11.2144 11.9699 11.0806 12.1036C10.9469 12.2373 10.8718 12.4187 10.8718 12.6079C10.8718 12.797 10.9469 12.9784 11.0806 13.1121C11.2144 13.2458 11.3958 13.321 11.5849 13.321C11.7741 13.321 11.9555 13.2458 12.0892 13.1121C12.223 12.9784 12.2981 12.797 12.2981 12.6079C12.2981 12.4187 12.223 12.2373 12.0892 12.1036C11.9555 11.9699 11.7741 11.8948 11.5849 11.8948ZM5.16648 11.1817C5.54476 11.1817 5.90755 11.3319 6.17504 11.5994C6.44253 11.8668 6.5928 12.2296 6.5928 12.6079C6.5928 12.9861 6.44253 13.3489 6.17504 13.6163C5.90755 13.8838 5.54476 14.0341 5.16648 14.0341C4.78819 14.0341 4.4254 13.8838 4.15792 13.6163C3.89043 13.3489 3.74016 12.9861 3.74016 12.6079C3.74016 12.2296 3.89043 11.8668 4.15792 11.5994C4.4254 11.3319 4.78819 11.1817 5.16648 11.1817ZM5.16648 11.8948C4.97734 11.8948 4.79594 11.9699 4.6622 12.1036C4.52845 12.2373 4.45332 12.4187 4.45332 12.6079C4.45332 12.797 4.52845 12.9784 4.6622 13.1121C4.79594 13.2458 4.97734 13.321 5.16648 13.321C5.35562 13.321 5.53702 13.2458 5.67076 13.1121C5.8045 12.9784 5.87964 12.797 5.87964 12.6079C5.87964 12.4187 5.8045 12.2373 5.67076 12.1036C5.53702 11.9699 5.35562 11.8948 5.16648 11.8948ZM13.0113 2.62442H3.22169L5.03811 6.90303H10.8718C10.9827 6.9032 11.092 6.87735 11.1911 6.82757C11.2902 6.77778 11.3763 6.70544 11.4423 6.61636L13.5818 3.76395H13.5825C13.6616 3.65796 13.7096 3.53205 13.7213 3.40032C13.7329 3.26858 13.7077 3.1362 13.6484 3.01797C13.5892 2.89974 13.4982 2.80032 13.3857 2.73082C13.2731 2.66132 13.1435 2.62448 13.0113 2.62442ZM10.8718 7.61614H5.07092L4.52463 8.72858L4.45332 9.04234C4.45332 9.23147 4.52845 9.41285 4.6622 9.54658C4.79594 9.68031 4.97734 9.75544 5.16648 9.75544H13.0113V10.4685H5.16648C4.91813 10.4687 4.67406 10.4039 4.45841 10.2808C4.24275 10.1576 4.063 9.98031 3.93692 9.76636C3.81085 9.55241 3.74283 9.30926 3.73958 9.06095C3.73634 8.81264 3.798 8.5678 3.91845 8.35063L4.43192 7.29952L1.84172 1.19821H0.887512V0.485107H2.31383L2.91931 1.91131H13.0113C13.2807 1.91134 13.5447 1.9877 13.7726 2.13156C14.0004 2.27541 14.1829 2.48088 14.2988 2.72415C14.4147 2.96742 14.4593 3.23854 14.4274 3.50611C14.3956 3.77369 14.2886 4.02676 14.1188 4.23603L12.0406 7.00715C11.9092 7.19527 11.7344 7.34887 11.5309 7.4549C11.3273 7.56093 11.1012 7.61624 10.8718 7.61614Z" fill="#211414" stroke="black" stroke-width="0.084681"/>
</svg>
