<svg width="254" height="15" viewBox="0 0 254 15" fill="none" xmlns="http://www.w3.org/2000/svg">
<path d="M10.3585 14.622V9.98151V8.59274H11.798V8.28789H5.48083V8.59274H7.44543C8.39385 8.59274 9.02049 9.21938 9.02049 10.1678V12.3865C8.32611 13.3179 7.20832 13.7583 6.09053 13.7752C3.16057 13.7752 1.5855 11.6074 1.5855 7.5427C1.5855 3.90142 3.04202 1.93682 5.75181 1.93682C7.4793 1.93682 9.08824 3.08848 9.22373 5.07002L9.29147 6.1878L9.57939 6.17087L9.30841 0.954522L9.13905 0.971458L9.22373 2.61427C9.22373 2.76669 9.24066 2.86831 9.27453 3.0038L9.20679 3.02074C9.17292 2.90218 9.10517 2.78363 9.02049 2.69895C8.15675 1.98763 7.07283 1.63197 5.92117 1.63197C2.43231 1.63197 0.112056 4.10465 0.112056 7.81368C0.112056 11.5735 2.46619 14.0801 6.02279 14.0801C7.17445 14.0801 8.2753 13.6567 9.03743 12.8437C9.18985 12.6913 9.35922 12.6066 9.51164 12.6066C9.88424 12.6066 10.1891 13.03 10.206 13.4365V14.622H10.3585ZM18.8026 10.4557V5.01921H18.6502V5.61197C18.6502 7.23785 17.7695 7.40721 16.8211 7.40721H16.1436V2.96993C16.1436 2.59733 15.9743 2.29248 15.771 2.08925V2.07231H18.159C19.7849 2.07231 20.6656 2.69895 20.7672 4.52806L20.8349 5.71359H21.1398L20.8349 1.12388L20.6825 1.14082L20.7333 1.91988H20.7164C20.5978 1.80133 20.3607 1.76746 20.0897 1.76746H13.3322V1.91988H13.925C14.7379 1.91988 14.8226 2.00457 14.8226 2.8175V12.8945C14.8226 13.7075 14.7379 13.7922 13.925 13.7922H13.3322V13.9446H21.0043C21.2753 13.9446 21.5124 13.9107 21.6309 13.7922H21.6479L21.5971 14.5882H21.7495L22.0374 9.99845H21.7664L21.6648 11.3533C21.5463 12.9792 20.7672 13.6397 19.1413 13.6397H15.771V13.6228C15.9743 13.4196 16.1436 13.1147 16.1436 12.7421V7.71206H16.8211C17.7695 7.71206 18.6502 7.89836 18.6502 9.52423V10.4557H18.8026ZM23.8624 13.9446H26.8601V13.7922H26.4198C25.6068 13.7922 25.5052 13.7075 25.5052 12.8945V3.74899C25.5052 3.46108 25.5052 3.20704 25.4883 3.02074H25.573C25.573 3.03767 25.7254 3.3764 25.9117 3.68125L31.1619 13.2163C31.3821 13.6228 31.6361 14.097 31.6361 14.2664H31.7716V2.98687C31.7716 2.17393 32.0426 1.91988 32.8555 1.91988H33.1265V1.76746H29.6377V1.91988H30.3998C31.2127 1.91988 31.4837 2.17393 31.4837 2.98687V10.2186C31.4837 10.5065 31.4837 10.7436 31.5006 10.9299H31.399C31.399 10.8622 31.2805 10.6251 31.0942 10.3033L26.4537 1.76746H23.8624V1.91988H24.3028C25.1157 1.91988 25.2173 2.00457 25.2173 2.8175V12.8945C25.2173 13.7075 25.1157 13.7922 24.3028 13.7922H23.8624V13.9446ZM36.328 13.9446H41.9847V13.7922H40.7314C39.9185 13.7922 39.8338 13.7075 39.8338 12.8945V2.07231H40.8161C42.4419 2.07231 42.9839 2.3941 43.1025 4.01997L43.1533 4.73129L43.4581 4.69742L43.2041 0.785161L43.0178 0.802097L43.1025 1.76746H35.2102L35.2779 0.785161L35.1086 0.768224L34.8545 4.69742L35.1424 4.73129L35.2102 4.01997C35.2949 2.3941 35.8707 2.07231 37.4966 2.07231H38.5128V12.8945C38.5128 13.7075 38.4281 13.7922 37.6151 13.7922H36.328V13.9446ZM45.204 13.9446H52.3341C52.6051 13.9446 52.6729 13.9107 52.7914 13.7922H52.8083L52.7406 14.7914L52.91 14.8083L53.2487 9.99845H52.91L52.7745 11.6921C52.639 13.3179 51.5551 13.6397 49.9292 13.6397H47.6428V13.6228C47.846 13.4196 48.0154 13.1147 48.0154 12.7421V2.80057C48.0154 1.98763 48.117 1.91988 48.93 1.91988H49.5227V1.76746H45.204V1.91988H45.7968C46.6097 1.91988 46.6944 1.98763 46.6944 2.80057V12.776C46.6944 13.5889 46.6097 13.7922 45.7968 13.7922H45.204V13.9446ZM60.5761 10.4557V5.01921H60.4237V5.61197C60.4237 7.23785 59.543 7.40721 58.5946 7.40721H57.9171V2.96993C57.9171 2.59733 57.7478 2.29248 57.5445 2.08925V2.07231H59.9325C61.5584 2.07231 62.4391 2.69895 62.5407 4.52806L62.6084 5.71359H62.9133L62.6084 1.12388L62.456 1.14082L62.5068 1.91988H62.4899C62.3713 1.80133 62.1342 1.76746 61.8633 1.76746H55.1057V1.91988H55.6985C56.5114 1.91988 56.5961 2.00457 56.5961 2.8175V12.8945C56.5961 13.7075 56.5114 13.7922 55.6985 13.7922H55.1057V13.9446H62.7778C63.0488 13.9446 63.2859 13.9107 63.4044 13.7922H63.4214L63.3706 14.5882H63.523L63.8109 9.99845H63.5399L63.4383 11.3533C63.3198 12.9792 62.5407 13.6397 60.9148 13.6397H57.5445V13.6228C57.7478 13.4196 57.9171 13.1147 57.9171 12.7421V7.71206H58.5946C59.543 7.71206 60.4237 7.89836 60.4237 9.52423V10.4557H60.5761ZM81.8206 14.622V9.98151V8.59274H83.2601V8.28789H76.9429V8.59274H78.9075C79.856 8.59274 80.4826 9.21938 80.4826 10.1678V12.3865C79.7882 13.3179 78.6704 13.7583 77.5527 13.7752C74.6227 13.7752 73.0476 11.6074 73.0476 7.5427C73.0476 3.90142 74.5041 1.93682 77.2139 1.93682C78.9414 1.93682 80.5504 3.08848 80.6858 5.07002L80.7536 6.1878L81.0415 6.17087L80.7705 0.954522L80.6012 0.971458L80.6858 2.61427C80.6858 2.76669 80.7028 2.86831 80.7367 3.0038L80.6689 3.02074C80.635 2.90218 80.5673 2.78363 80.4826 2.69895C79.6189 1.98763 78.535 1.63197 77.3833 1.63197C73.8944 1.63197 71.5742 4.10465 71.5742 7.81368C71.5742 11.5735 73.9283 14.0801 77.4849 14.0801C78.6366 14.0801 79.7374 13.6567 80.4995 12.8437C80.652 12.6913 80.8213 12.6066 80.9738 12.6066C81.3464 12.6066 81.6512 13.03 81.6681 13.4365V14.622H81.8206ZM90.2647 10.4557V5.01921H90.1123V5.61197C90.1123 7.23785 89.2316 7.40721 88.2832 7.40721H87.6057V2.96993C87.6057 2.59733 87.4364 2.29248 87.2331 2.08925V2.07231H89.6211C91.247 2.07231 92.1277 2.69895 92.2293 4.52806L92.2971 5.71359H92.6019L92.2971 1.12388L92.1446 1.14082L92.1954 1.91988H92.1785C92.06 1.80133 91.8228 1.76746 91.5519 1.76746H84.7943V1.91988H85.3871C86.2 1.91988 86.2847 2.00457 86.2847 2.8175V12.8945C86.2847 13.7075 86.2 13.7922 85.3871 13.7922H84.7943V13.9446H92.4664C92.7374 13.9446 92.9745 13.9107 93.0931 13.7922H93.11L93.0592 14.5882H93.2116L93.4995 9.99845H93.2286L93.1269 11.3533C93.0084 12.9792 92.2293 13.6397 90.6034 13.6397H87.2331V13.6228C87.4364 13.4196 87.6057 13.1147 87.6057 12.7421V7.71206H88.2832C89.2316 7.71206 90.1123 7.89836 90.1123 9.52423V10.4557H90.2647ZM101.811 14.0801C105.554 14.0801 108.061 11.5904 108.061 7.84755C108.061 4.12159 105.554 1.63197 101.811 1.63197C98.0347 1.63197 95.5282 4.12159 95.5282 7.84755C95.5282 11.5904 98.0347 14.0801 101.811 14.0801ZM101.862 13.7752C98.6952 13.7752 97.0016 11.6074 97.0016 7.5427C97.0016 3.90142 98.6614 1.93682 101.744 1.93682C104.877 1.93682 106.587 4.12159 106.587 8.16934C106.587 11.8276 104.928 13.7752 101.862 13.7752ZM109.92 13.9446H113.189V13.7922H112.579C111.647 13.7922 111.495 13.6059 111.495 13.1994C111.495 13.0978 111.512 12.9623 111.529 12.8099L111.952 3.91836C111.969 3.6135 111.969 3.49495 111.969 3.34252H112.037C112.037 3.39333 112.071 3.71512 112.223 4.05384L116.711 14.0123L116.762 14.1309H116.796L116.847 14.0123L121.403 3.86755C121.555 3.51189 121.674 3.22397 121.674 3.17316H121.775C121.775 3.35946 121.775 3.6135 121.792 3.91836L122.131 12.8437C122.131 12.9623 122.131 13.0639 122.131 13.1486C122.131 13.555 122.012 13.7922 121.098 13.7922H120.488V13.9446H124.908V13.7922H124.536C123.604 13.7922 123.486 13.555 123.452 12.5897L123.062 3.12235C123.045 2.95299 123.045 2.80057 123.045 2.66508C123.045 2.17393 123.164 1.91988 123.994 1.91988H124.57V1.76746H122.029L117.643 11.4719C117.524 11.7259 117.406 12.0985 117.406 12.2002H117.321C117.321 12.0985 117.219 11.8106 117.067 11.4719L112.68 1.76746H110.191V1.91988H110.868C111.597 1.91988 111.698 2.08925 111.698 2.46184C111.698 2.5804 111.698 2.69895 111.698 2.8175L111.241 12.5897C111.19 13.5381 111.055 13.7922 110.191 13.7922H109.92V13.9446ZM132.01 10.4557V5.01921H131.858V5.61197C131.858 7.23785 130.977 7.40721 130.029 7.40721H129.351V2.96993C129.351 2.59733 129.182 2.29248 128.979 2.08925V2.07231H131.367C132.993 2.07231 133.873 2.69895 133.975 4.52806L134.043 5.71359H134.348L134.043 1.12388L133.89 1.14082L133.941 1.91988H133.924C133.806 1.80133 133.569 1.76746 133.298 1.76746H126.54V1.91988H127.133C127.946 1.91988 128.03 2.00457 128.03 2.8175V12.8945C128.03 13.7075 127.946 13.7922 127.133 13.7922H126.54V13.9446H134.212C134.483 13.9446 134.72 13.9107 134.839 13.7922H134.856L134.805 14.5882H134.957L135.245 9.99845H134.974L134.873 11.3533C134.754 12.9792 133.975 13.6397 132.349 13.6397H128.979V13.6228C129.182 13.4196 129.351 13.1147 129.351 12.7421V7.71206H130.029C130.977 7.71206 131.858 7.89836 131.858 9.52423V10.4557H132.01ZM138.195 13.9446H143.852V13.7922H142.599C141.786 13.7922 141.701 13.7075 141.701 12.8945V2.07231H142.683C144.309 2.07231 144.851 2.3941 144.97 4.01997L145.02 4.73129L145.325 4.69742L145.071 0.785161L144.885 0.802097L144.97 1.76746H137.077L137.145 0.785161L136.976 0.768224L136.722 4.69742L137.01 4.73129L137.077 4.01997C137.162 2.3941 137.738 2.07231 139.364 2.07231H140.38V12.8945C140.38 13.7075 140.295 13.7922 139.482 13.7922H138.195V13.9446ZM147.071 13.9446H151.779V13.7922H150.797C149.984 13.7922 149.883 13.7075 149.883 12.8945V2.96993C149.883 2.5804 149.798 2.29248 149.595 2.08925V2.07231H151.356C153.405 2.07231 154.523 3.29172 154.523 5.52729C154.523 7.79674 153.405 8.99921 151.356 8.99921H150.577V9.28713H150.78C151.542 9.28713 151.898 9.72747 152.457 10.5912L153.642 12.4203C154.167 13.2502 154.76 14.1309 155.624 14.1309C156.03 14.1309 156.488 13.9446 157.03 13.4704L157.402 13.1486L157.301 13.03L156.928 13.3518C156.759 13.5042 156.606 13.5381 156.437 13.5381C155.912 13.5381 155.218 12.505 154.794 11.8106L153.947 10.4727C153.575 9.89683 152.863 9.38874 152.067 9.30406V9.20245L152.406 9.18551C154.438 8.99921 155.997 7.59351 155.997 5.52729C155.997 3.27478 154.201 1.76746 151.492 1.76746H147.071V1.91988H147.664C148.477 1.91988 148.562 2.00457 148.562 2.8175V12.8945C148.562 13.7075 148.477 13.7922 147.664 13.7922H147.071V13.9446ZM159.873 13.9446H165.716V13.7922H164.462C163.649 13.7922 163.565 13.7075 163.565 12.8945V7.94917L166.071 3.10542C166.512 2.24167 166.715 1.90295 167.206 1.90295H167.494V1.76746H164.225V1.90295H165.241C165.767 1.90295 165.953 2.10618 165.953 2.37716C165.953 2.59733 165.851 2.85138 165.716 3.12235L163.683 7.05155C163.599 7.22091 163.48 7.49189 163.463 7.59351H163.345C163.328 7.49189 163.209 7.20398 163.124 7.05155L160.94 2.88525C160.669 2.37716 160.465 2.0215 160.245 1.93682V1.90295H161.295V1.76746H158.094V1.90295H158.45C158.941 1.90295 159.161 2.30942 159.568 3.08848L162.227 8.20321V12.8945C162.227 13.7075 162.142 13.7922 161.329 13.7922H159.873V13.9446ZM175.095 11.963H174.943C174.943 13.2333 175.807 14.0801 177.111 14.0801C178.635 14.0801 179.787 12.9284 179.787 11.2179V2.8175C179.787 2.22474 180.091 1.91988 180.684 1.91988H181.125V1.76746H176.281V1.91988H178.618V1.95376C178.499 2.07231 178.466 2.12312 178.466 2.3941V11.98C178.466 13.1486 177.991 13.7752 177.111 13.7752C175.891 13.7752 175.095 13.0639 175.095 11.963ZM188.378 10.4557V5.01921H188.225V5.61197C188.225 7.23785 187.344 7.40721 186.396 7.40721H185.719V2.96993C185.719 2.59733 185.549 2.29248 185.346 2.08925V2.07231H187.734C189.36 2.07231 190.241 2.69895 190.342 4.52806L190.41 5.71359H190.715L190.41 1.12388L190.257 1.14082L190.308 1.91988H190.291C190.173 1.80133 189.936 1.76746 189.665 1.76746H182.907V1.91988H183.5C184.313 1.91988 184.398 2.00457 184.398 2.8175V12.8945C184.398 13.7075 184.313 13.7922 183.5 13.7922H182.907V13.9446H190.579C190.85 13.9446 191.087 13.9107 191.206 13.7922H191.223L191.172 14.5882H191.324L191.612 9.99845H191.341L191.24 11.3533C191.121 12.9792 190.342 13.6397 188.716 13.6397H185.346V13.6228C185.549 13.4196 185.719 13.1147 185.719 12.7421V7.71206H186.396C187.344 7.71206 188.225 7.89836 188.225 9.52423V10.4557H188.378ZM192.69 1.76746V1.91988H192.944C193.553 1.91988 193.672 2.14006 193.926 2.96993L197.957 14.097L198.905 14.0293L201.716 4.64661L204.562 14.097L205.51 14.0123L209.524 2.96993C209.761 2.30942 209.914 1.91988 210.456 1.91988H210.71V1.76746H207.83V1.91988H208.474C209.05 1.91988 209.304 2.10618 209.304 2.46184C209.304 2.59733 209.27 2.76669 209.202 2.95299L205.866 12.1155C205.747 12.4373 205.713 12.6405 205.713 12.776H205.476C205.476 12.6574 205.442 12.4711 205.375 12.1663L202.546 2.73282C202.462 2.42797 202.258 2.03844 202.021 1.95376V1.91988H203.63V1.76746H199.837V1.91988H200.226C200.836 1.91988 200.988 2.17393 201.225 2.96993L201.564 4.10465L199.142 12.1663C199.024 12.5219 199.024 12.7252 199.024 12.776H198.854C198.854 12.5389 198.77 12.2171 198.753 12.1663L195.247 2.73282C195.179 2.49571 195.128 2.25861 195.128 2.00457V1.76746H192.69ZM217.807 10.4557V5.01921H217.654V5.61197C217.654 7.23785 216.774 7.40721 215.825 7.40721H215.148V2.96993C215.148 2.59733 214.978 2.29248 214.775 2.08925V2.07231H217.163C218.789 2.07231 219.67 2.69895 219.771 4.52806L219.839 5.71359H220.144L219.839 1.12388L219.687 1.14082L219.738 1.91988H219.721C219.602 1.80133 219.365 1.76746 219.094 1.76746H212.336V1.91988H212.929C213.742 1.91988 213.827 2.00457 213.827 2.8175V12.8945C213.827 13.7075 213.742 13.7922 212.929 13.7922H212.336V13.9446H220.009C220.279 13.9446 220.517 13.9107 220.635 13.7922H220.652L220.601 14.5882H220.754L221.042 9.99845H220.771L220.669 11.3533C220.55 12.9792 219.771 13.6397 218.146 13.6397H214.775V13.6228C214.978 13.4196 215.148 13.1147 215.148 12.7421V7.71206H215.825C216.774 7.71206 217.654 7.89836 217.654 9.52423V10.4557H217.807ZM222.867 13.9446H229.997C230.268 13.9446 230.335 13.9107 230.454 13.7922H230.471L230.403 14.7914L230.573 14.8083L230.911 9.99845H230.573L230.437 11.6921C230.302 13.3179 229.218 13.6397 227.592 13.6397H225.305V13.6228C225.509 13.4196 225.678 13.1147 225.678 12.7421V2.80057C225.678 1.98763 225.78 1.91988 226.593 1.91988H227.185V1.76746H222.867V1.91988H223.459C224.272 1.91988 224.357 1.98763 224.357 2.80057V12.776C224.357 13.5889 224.272 13.7922 223.459 13.7922H222.867V13.9446ZM232.768 13.9446H237.477V13.7922H236.494C235.681 13.7922 235.58 13.7075 235.58 12.8945V2.96993C235.58 2.5804 235.495 2.29248 235.292 2.08925V2.07231H237.053C239.102 2.07231 240.22 3.29172 240.22 5.52729C240.22 7.79674 239.102 8.99921 237.053 8.99921H236.274V9.28713H236.477C237.239 9.28713 237.595 9.72747 238.154 10.5912L239.34 12.4203C239.865 13.2502 240.457 14.1309 241.321 14.1309C241.728 14.1309 242.185 13.9446 242.727 13.4704L243.099 13.1486L242.998 13.03L242.625 13.3518C242.456 13.5042 242.303 13.5381 242.134 13.5381C241.609 13.5381 240.915 12.505 240.491 11.8106L239.644 10.4727C239.272 9.89683 238.561 9.38874 237.765 9.30406V9.20245L238.103 9.18551C240.136 8.99921 241.694 7.59351 241.694 5.52729C241.694 3.27478 239.898 1.76746 237.189 1.76746H232.768V1.91988H233.361C234.174 1.91988 234.259 2.00457 234.259 2.8175V12.8945C234.259 13.7075 234.174 13.7922 233.361 13.7922H232.768V13.9446ZM245.57 13.9446H251.413V13.7922H250.16C249.347 13.7922 249.262 13.7075 249.262 12.8945V7.94917L251.768 3.10542C252.209 2.24167 252.412 1.90295 252.903 1.90295H253.191V1.76746H249.922V1.90295H250.939C251.464 1.90295 251.65 2.10618 251.65 2.37716C251.65 2.59733 251.548 2.85138 251.413 3.12235L249.38 7.05155C249.296 7.22091 249.177 7.49189 249.16 7.59351H249.042C249.025 7.49189 248.906 7.20398 248.822 7.05155L246.637 2.88525C246.366 2.37716 246.163 2.0215 245.942 1.93682V1.90295H246.992V1.76746H243.792V1.90295H244.147C244.638 1.90295 244.859 2.30942 245.265 3.08848L247.924 8.20321V12.8945C247.924 13.7075 247.839 13.7922 247.026 13.7922H245.57V13.9446Z" fill="#211414"/>
</svg>
