<svg width="200" height="184" viewBox="0 0 200 184" fill="none" xmlns="http://www.w3.org/2000/svg">
<path d="M69.0256 80.8746V88.5806H68.222V81.5791H63.3452V88.5806H62.5416V80.8746H69.0256ZM78.1758 87.876V88.5806H72.7266V80.8746H78.0107V81.5791H73.5412V84.3203H77.5263V85.0138H73.5412V87.876H78.1758ZM83.9683 80.8746C84.9517 80.8746 85.7223 81.1094 86.2801 81.5791C86.8378 82.0488 87.1167 82.6947 87.1167 83.5166C87.1167 84.3386 86.8378 84.9844 86.2801 85.4541C85.7223 85.9165 84.9517 86.1477 83.9683 86.1477H81.8987V88.5806H81.084V80.8746H83.9683ZM83.9463 85.4321C84.7095 85.4321 85.293 85.267 85.6966 84.9367C86.1003 84.5992 86.3021 84.1258 86.3021 83.5166C86.3021 82.8928 86.1003 82.4158 85.6966 82.0855C85.293 81.7479 84.7095 81.5791 83.9463 81.5791H81.8987V85.4321H83.9463ZM95.3422 87.876V88.5806H89.893V80.8746H95.1771V81.5791H90.7076V84.3203H94.6927V85.0138H90.7076V87.876H95.3422ZM98.2505 80.8746H99.0541V87.2595L103.986 80.8746H104.723V88.5806H103.92V82.2066L98.988 88.5806H98.2505V80.8746ZM101.465 80.3132C100.915 80.3132 100.478 80.1884 100.155 79.9389C99.8394 79.6893 99.6779 79.3407 99.6706 78.8931H100.276C100.283 79.1866 100.393 79.4178 100.606 79.5866C100.819 79.7554 101.105 79.8398 101.465 79.8398C101.817 79.8398 102.1 79.7554 102.313 79.5866C102.533 79.4178 102.647 79.1866 102.654 78.8931H103.259C103.252 79.3407 103.087 79.6893 102.764 79.9389C102.441 80.1884 102.008 80.3132 101.465 80.3132ZM113.467 81.5791H110.759V88.5806H109.955V81.5791H107.247V80.8746H113.467V81.5791ZM115.997 80.8746H116.801V87.2595L121.733 80.8746H122.47V88.5806H121.667V82.2066L116.735 88.5806H115.997V80.8746ZM61.5155 97.6065C62.0513 97.7166 62.4586 97.9331 62.7375 98.256C63.0164 98.5716 63.1558 98.9862 63.1558 99.5C63.1558 100.168 62.9173 100.682 62.4403 101.041C61.9706 101.401 61.277 101.581 60.3596 101.581H56.947V93.8746H60.1505C60.9725 93.8746 61.6146 94.0434 62.077 94.381C62.5393 94.7186 62.7705 95.2066 62.7705 95.8451C62.7705 96.2781 62.6604 96.6451 62.4403 96.946C62.2201 97.2395 61.9118 97.4597 61.5155 97.6065ZM57.7506 97.3643H60.1065C60.7009 97.3643 61.1559 97.2432 61.4715 97.001C61.7944 96.7588 61.9559 96.4066 61.9559 95.9442C61.9559 95.4818 61.7944 95.1296 61.4715 94.8874C61.1559 94.6452 60.7009 94.5241 60.1065 94.5241H57.7506V97.3643ZM60.3596 100.931C61.688 100.931 62.3522 100.436 62.3522 99.4449C62.3522 98.4762 61.688 97.9918 60.3596 97.9918H57.7506V100.931H60.3596ZM72.8295 98.0468H71.0681V101.581H70.2755V93.8746H71.0681V97.3313H72.8295L75.4385 93.8746H76.3192L73.457 97.6175L76.4843 101.581H75.5486L72.8295 98.0468ZM83.683 99.522H79.3897L78.465 101.581H77.6173L81.14 93.8746H81.9437L85.4664 101.581H84.6077L83.683 99.522ZM83.3858 98.8615L81.5363 94.7223L79.6869 98.8615H83.3858ZM92.6988 94.5791H89.9907V101.581H89.1871V94.5791H86.479V93.8746H92.6988V94.5791ZM99.7744 99.522H95.481L94.5563 101.581H93.7087L97.2314 93.8746H98.035L101.558 101.581H100.699L99.7744 99.522ZM99.4771 98.8615L97.6277 94.7223L95.7783 98.8615H99.4771ZM110.2 93.8746V101.581H109.397V94.5791H105.676L105.588 97.1551C105.551 98.2193 105.463 99.078 105.324 99.7311C105.192 100.377 104.986 100.861 104.707 101.184C104.428 101.5 104.058 101.658 103.595 101.658C103.397 101.658 103.192 101.632 102.979 101.581L103.045 100.854C103.17 100.883 103.291 100.898 103.408 100.898C103.731 100.898 103.992 100.77 104.19 100.513C104.395 100.256 104.549 99.8596 104.652 99.3238C104.755 98.7807 104.825 98.0652 104.861 97.1772L104.971 93.8746H110.2ZM117.281 101.647C116.517 101.647 115.824 101.478 115.2 101.14C114.584 100.795 114.099 100.326 113.747 99.7311C113.402 99.1367 113.23 98.4688 113.23 97.7276C113.23 96.9863 113.402 96.3185 113.747 95.724C114.099 95.1296 114.584 94.6635 115.2 94.3259C115.824 93.981 116.517 93.8085 117.281 93.8085C118.044 93.8085 118.73 93.9773 119.339 94.3149C119.956 94.6525 120.44 95.1222 120.792 95.724C121.145 96.3185 121.321 96.9863 121.321 97.7276C121.321 98.4688 121.145 99.1403 120.792 99.7421C120.44 100.337 119.956 100.803 119.339 101.14C118.73 101.478 118.044 101.647 117.281 101.647ZM117.281 100.92C117.89 100.92 118.44 100.784 118.932 100.513C119.424 100.234 119.809 99.8522 120.088 99.3679C120.367 98.8761 120.506 98.3294 120.506 97.7276C120.506 97.1258 120.367 96.5827 120.088 96.0983C119.809 95.6066 119.424 95.225 118.932 94.9534C118.44 94.6746 117.89 94.5351 117.281 94.5351C116.672 94.5351 116.117 94.6746 115.618 94.9534C115.127 95.225 114.738 95.6066 114.451 96.0983C114.173 96.5827 114.033 97.1258 114.033 97.7276C114.033 98.3294 114.173 98.8761 114.451 99.3679C114.738 99.8522 115.127 100.234 115.618 100.513C116.117 100.784 116.672 100.92 117.281 100.92ZM129.264 94.5791H125.158L125.169 101.581H124.366V93.8746H129.264V94.5791Z" fill="#53413D"/>
<path d="M38.598 18.3895L92.133 0.994893L145.668 18.3895L178.754 63.9291V120.219L145.668 165.759L92.133 183.153L38.598 165.759L5.51153 120.219L5.51153 63.9291L38.598 18.3895Z" stroke="#53413D" stroke-width="0.715654"/>
<path d="M199.686 91.5184C199.826 91.3787 199.826 91.1521 199.686 91.0124L197.409 88.7352C197.269 88.5954 197.043 88.5954 196.903 88.7352C196.763 88.8749 196.763 89.1015 196.903 89.2412L198.927 91.2654L196.903 93.2896C196.763 93.4293 196.763 93.6559 196.903 93.7956C197.043 93.9353 197.269 93.9353 197.409 93.7956L199.686 91.5184ZM158.786 91.6232H199.433V90.9076H158.786V91.6232Z" fill="#53413D"/>
</svg>
