<svg width="82" height="71" viewBox="0 0 82 71" fill="none" xmlns="http://www.w3.org/2000/svg">
<path d="M46.752 36.4007C46.8918 36.261 46.8918 36.0344 46.752 35.8947L44.4748 33.6175C44.3351 33.4777 44.1085 33.4777 43.9688 33.6175C43.829 33.7572 43.829 33.9838 43.9688 34.1235L45.993 36.1477L43.9688 38.1719C43.829 38.3116 43.829 38.5382 43.9688 38.6779C44.1085 38.8177 44.3351 38.8177 44.4748 38.6779L46.752 36.4007ZM0.771286 36.5055H46.499V35.7899H0.771286V36.5055Z" fill="#53413D"/>
<path d="M66.5946 7.64748L46.1476 1.00386L25.7006 7.64748L13.0637 25.0407V46.5399L25.7006 63.9331L46.1476 70.5767L66.5946 63.9331L79.2315 46.5399V25.0407L66.5946 7.64748Z" stroke="#53413D" stroke-width="0.677448"/>
</svg>
