<svg width="14" height="15" viewBox="0 0 14 15" fill="none" xmlns="http://www.w3.org/2000/svg">
<path d="M5.96414 11.6115C2.88251 11.6115 0.400085 9.12946 0.400085 6.04831C0.400085 2.96715 2.88251 0.485107 5.96414 0.485107C9.04576 0.485107 11.5282 2.96715 11.5282 6.04831C11.5282 9.12946 9.04576 11.6115 5.96414 11.6115ZM5.96414 1.34098C3.35331 1.34098 1.25609 3.43788 1.25609 6.04831C1.25609 8.65873 3.35331 10.7556 5.96414 10.7556C8.57496 10.7556 10.6722 8.65873 10.6722 6.04831C10.6722 3.43788 8.57496 1.34098 5.96414 1.34098Z" fill="#211414"/>
<path d="M10.1088 9.58521L13.9522 13.4286L13.347 14.0338L9.5036 10.1904L10.1088 9.58521Z" fill="#211414"/>
</svg>
